<svg width="100" height="100" viewBox="0 0 100 100" fill="none" xmlns="http://www.w3.org/2000/svg">
<path d="M93.5405 50.75C93.5405 39.1468 88.9311 28.0188 80.7264 19.8141C72.5217 11.6094 61.3937 7.00002 49.7905 7.00002C38.7739 6.98985 28.159 11.1362 20.0661 18.6109C11.9732 26.0856 6.99813 36.3382 6.13467 47.3209C5.27121 58.3037 8.58291 69.2079 15.4083 77.8554C22.2336 86.5029 32.0701 92.2572 42.953 93.9688V63.3938H31.853V50.75H42.9592V41.1125C42.9592 30.15 49.4905 24.0875 59.4842 24.0875C64.2717 24.0875 69.278 24.9438 69.278 24.9438V35.7125H63.7592C58.3217 35.7125 56.6342 39.0875 56.6342 42.5438V50.75H68.7655L66.828 63.3938H56.628V93.9688C66.9186 92.3392 76.2901 87.0911 83.0567 79.1685C89.8232 71.246 93.5407 61.1689 93.5405 50.75Z" fill="#1877F2"/>
<path d="M67.0312 62.6437L68.9688 50H56.8375V41.7937C56.8375 38.3375 58.525 34.9625 63.9625 34.9625H69.4812V24.1875C69.4812 24.1875 64.475 23.3312 59.6875 23.3312C49.6875 23.3312 43.1625 29.3937 43.1625 40.3562V50H32.0625V62.6437H43.1687V93.2187C47.6992 93.9317 52.3133 93.9317 56.8438 93.2187V62.6437H67.0312Z" fill="white"/>
</svg>
