<svg width="145" height="23" viewBox="0 0 145 23" fill="none" xmlns="http://www.w3.org/2000/svg">
<path d="M0.651279 22V0.181818H15.5447V4.46449H5.92472V8.93892H14.5966V13.2322H5.92472V22H0.651279ZM22.5494 22.277C21.5053 22.277 20.5785 22.103 19.7688 21.755C18.9663 21.3999 18.3306 20.8672 17.8619 20.157C17.4002 19.4396 17.1694 18.5412 17.1694 17.4616C17.1694 16.5526 17.3292 15.7855 17.6488 15.1605C17.9684 14.5355 18.4087 14.0277 18.9698 13.6371C19.5309 13.2464 20.1772 12.9517 20.9087 12.7528C21.6403 12.5469 22.4215 12.4084 23.2525 12.3374C24.1829 12.2521 24.9322 12.1634 25.5004 12.071C26.0685 11.9716 26.4805 11.8331 26.7362 11.6555C26.9989 11.4709 27.1303 11.2116 27.1303 10.8778V10.8246C27.1303 10.2777 26.9421 9.85511 26.5657 9.55682C26.1893 9.25852 25.6815 9.10938 25.0423 9.10938C24.3533 9.10938 23.7994 9.25852 23.3803 9.55682C22.9613 9.85511 22.695 10.267 22.5813 10.7926L17.7766 10.6222C17.9187 9.62784 18.2844 8.74006 18.8739 7.95881C19.4705 7.17045 20.2873 6.55256 21.3242 6.10511C22.3683 5.65057 23.6218 5.4233 25.0849 5.4233C26.1289 5.4233 27.0913 5.54759 27.9719 5.79616C28.8526 6.03764 29.6197 6.39276 30.2731 6.86151C30.9265 7.32315 31.4308 7.89134 31.7859 8.56605C32.1481 9.24077 32.3292 10.0114 32.3292 10.8778V22H27.4286V19.7202H27.3008C27.0096 20.2741 26.6367 20.7429 26.1822 21.1264C25.7347 21.5099 25.2056 21.7976 24.5948 21.9893C23.9911 22.1811 23.3093 22.277 22.5494 22.277ZM24.158 18.8679C24.7191 18.8679 25.2234 18.7543 25.6708 18.527C26.1254 18.2997 26.4876 17.9872 26.7575 17.5895C27.0273 17.1847 27.1623 16.7159 27.1623 16.1832V14.6278C27.0131 14.706 26.832 14.777 26.619 14.8409C26.413 14.9048 26.1857 14.9652 25.9371 15.022C25.6886 15.0788 25.4329 15.1286 25.1701 15.1712C24.9073 15.2138 24.6552 15.2528 24.4137 15.2884C23.9237 15.3665 23.5046 15.4872 23.1566 15.6506C22.8157 15.8139 22.5529 16.027 22.3683 16.2898C22.1907 16.5455 22.1019 16.8509 22.1019 17.206C22.1019 17.7457 22.2937 18.1577 22.6772 18.4418C23.0678 18.7259 23.5614 18.8679 24.158 18.8679ZM43.1531 22.3089C41.4272 22.3089 39.9464 21.9538 38.7106 21.2436C37.4819 20.5334 36.5373 19.5462 35.8768 18.282C35.2163 17.0107 34.886 15.5405 34.886 13.8714C34.886 12.1953 35.2163 10.7251 35.8768 9.46094C36.5444 8.18963 37.4925 7.19886 38.7212 6.48864C39.957 5.77841 41.4308 5.4233 43.1424 5.4233C44.6552 5.4233 45.9727 5.69673 47.0948 6.24361C48.2241 6.79048 49.1048 7.56463 49.7369 8.56605C50.3761 9.56037 50.7134 10.7287 50.7489 12.071H45.8803C45.7809 11.233 45.4968 10.576 45.0281 10.1001C44.5664 9.62429 43.9627 9.38636 43.217 9.38636C42.6133 9.38636 42.0842 9.55682 41.6296 9.89773C41.1751 10.2315 40.82 10.7287 40.5643 11.3892C40.3157 12.0426 40.1914 12.8523 40.1914 13.8182C40.1914 14.7841 40.3157 15.6009 40.5643 16.2685C40.82 16.929 41.1751 17.4297 41.6296 17.7706C42.0842 18.1044 42.6133 18.2713 43.217 18.2713C43.6999 18.2713 44.1261 18.1683 44.4954 17.9624C44.8718 17.7564 45.1808 17.4545 45.4222 17.0568C45.6637 16.652 45.8164 16.1619 45.8803 15.5866H50.7489C50.6992 16.9361 50.3619 18.1151 49.7369 19.1236C49.119 20.1321 48.2489 20.9169 47.1268 21.478C46.0117 22.032 44.6871 22.3089 43.1531 22.3089ZM61.0641 22.3089C59.3525 22.3089 57.8752 21.9716 56.6323 21.2969C55.3965 20.6151 54.4448 19.6456 53.7772 18.3885C53.1167 17.1243 52.7864 15.6222 52.7864 13.8821C52.7864 12.1918 53.1202 10.7145 53.7878 9.45028C54.4554 8.17898 55.3965 7.19176 56.611 6.48864C57.8255 5.77841 59.2566 5.4233 60.9043 5.4233C62.0691 5.4233 63.1344 5.6044 64.1003 5.96662C65.0662 6.32883 65.9007 6.86506 66.6039 7.57528C67.307 8.28551 67.8539 9.16264 68.2445 10.2067C68.6351 11.2436 68.8304 12.4332 68.8304 13.7756V15.0753H54.6081V12.0497H63.9831C63.976 11.4957 63.8446 11.0021 63.589 10.5689C63.3333 10.1357 62.9817 9.7983 62.5343 9.55682C62.0939 9.30824 61.5861 9.18395 61.0108 9.18395C60.4284 9.18395 59.9064 9.31534 59.4448 9.57812C58.9831 9.83381 58.6174 10.1854 58.3475 10.6328C58.0776 11.0732 57.9355 11.5739 57.9213 12.1349V15.2138C57.9213 15.8814 58.0527 16.4673 58.3155 16.9716C58.5783 17.4687 58.9512 17.8558 59.4341 18.1328C59.9171 18.4098 60.4924 18.5483 61.16 18.5483C61.6216 18.5483 62.0407 18.4844 62.4171 18.3565C62.7935 18.2287 63.1167 18.0405 63.3865 17.7919C63.6564 17.5433 63.8588 17.2379 63.9938 16.8757L68.7772 17.0142C68.5783 18.0866 68.1415 19.0206 67.4668 19.8161C66.7992 20.6044 65.9221 21.2187 64.8354 21.6591C63.7488 22.0923 62.4917 22.3089 61.0641 22.3089ZM71.4911 22V0.181818H76.7006V8.43821H76.8072C77.0202 7.94105 77.3221 7.46165 77.7127 7C78.1104 6.53835 78.6147 6.16193 79.2255 5.87074C79.8434 5.57244 80.582 5.4233 81.4414 5.4233C82.5778 5.4233 83.6396 5.72159 84.6268 6.31818C85.6211 6.91477 86.4237 7.83452 87.0344 9.07741C87.6452 10.3203 87.9506 11.9041 87.9506 13.8288C87.9506 15.6825 87.6559 17.2344 87.0664 18.4844C86.484 19.7344 85.6957 20.6719 84.7013 21.2969C83.7141 21.9219 82.6168 22.2344 81.4094 22.2344C80.5856 22.2344 79.8718 22.0994 79.2681 21.8295C78.6644 21.5597 78.1566 21.2045 77.7447 20.7642C77.3398 20.3239 77.0273 19.8516 76.8072 19.3473H76.6474V22H71.4911ZM76.5941 13.8182C76.5941 14.6989 76.7113 15.4659 76.9457 16.1193C77.1871 16.7727 77.5316 17.2805 77.979 17.6428C78.4336 17.9979 78.9769 18.1754 79.609 18.1754C80.2482 18.1754 80.7915 17.9979 81.239 17.6428C81.6864 17.2805 82.0238 16.7727 82.2511 16.1193C82.4854 15.4659 82.6026 14.6989 82.6026 13.8182C82.6026 12.9375 82.4854 12.174 82.2511 11.5277C82.0238 10.8814 81.6864 10.3807 81.239 10.0256C80.7987 9.67045 80.2553 9.4929 79.609 9.4929C78.9698 9.4929 78.4265 9.6669 77.979 10.0149C77.5316 10.3629 77.1871 10.8601 76.9457 11.5064C76.7113 12.1527 76.5941 12.9233 76.5941 13.8182ZM98.3191 22.3089C96.6003 22.3089 95.123 21.9574 93.8873 21.2543C92.6586 20.544 91.7104 19.5568 91.0428 18.2926C90.3823 17.0213 90.052 15.5476 90.052 13.8714C90.052 12.1882 90.3823 10.7145 91.0428 9.45028C91.7104 8.17898 92.6586 7.19176 93.8873 6.48864C95.123 5.77841 96.6003 5.4233 98.3191 5.4233C100.038 5.4233 101.512 5.77841 102.74 6.48864C103.976 7.19176 104.924 8.17898 105.585 9.45028C106.252 10.7145 106.586 12.1882 106.586 13.8714C106.586 15.5476 106.252 17.0213 105.585 18.2926C104.924 19.5568 103.976 20.544 102.74 21.2543C101.512 21.9574 100.038 22.3089 98.3191 22.3089ZM98.351 18.3778C98.976 18.3778 99.5051 18.1861 99.9384 17.8026C100.372 17.419 100.702 16.8864 100.929 16.2045C101.164 15.5227 101.281 14.7344 101.281 13.8395C101.281 12.9304 101.164 12.1349 100.929 11.4531C100.702 10.7713 100.372 10.2386 99.9384 9.85511C99.5051 9.47159 98.976 9.27983 98.351 9.27983C97.7047 9.27983 97.1578 9.47159 96.7104 9.85511C96.2701 10.2386 95.9327 10.7713 95.6983 11.4531C95.4711 12.1349 95.3574 12.9304 95.3574 13.8395C95.3574 14.7344 95.4711 15.5227 95.6983 16.2045C95.9327 16.8864 96.2701 17.419 96.7104 17.8026C97.1578 18.1861 97.7047 18.3778 98.351 18.3778ZM116.893 22.3089C115.175 22.3089 113.697 21.9574 112.461 21.2543C111.233 20.544 110.285 19.5568 109.617 18.2926C108.956 17.0213 108.626 15.5476 108.626 13.8714C108.626 12.1882 108.956 10.7145 109.617 9.45028C110.285 8.17898 111.233 7.19176 112.461 6.48864C113.697 5.77841 115.175 5.4233 116.893 5.4233C118.612 5.4233 120.086 5.77841 121.314 6.48864C122.55 7.19176 123.498 8.17898 124.159 9.45028C124.827 10.7145 125.16 12.1882 125.16 13.8714C125.16 15.5476 124.827 17.0213 124.159 18.2926C123.498 19.5568 122.55 20.544 121.314 21.2543C120.086 21.9574 118.612 22.3089 116.893 22.3089ZM116.925 18.3778C117.55 18.3778 118.079 18.1861 118.513 17.8026C118.946 17.419 119.276 16.8864 119.503 16.2045C119.738 15.5227 119.855 14.7344 119.855 13.8395C119.855 12.9304 119.738 12.1349 119.503 11.4531C119.276 10.7713 118.946 10.2386 118.513 9.85511C118.079 9.47159 117.55 9.27983 116.925 9.27983C116.279 9.27983 115.732 9.47159 115.285 9.85511C114.844 10.2386 114.507 10.7713 114.273 11.4531C114.045 12.1349 113.932 12.9304 113.932 13.8395C113.932 14.7344 114.045 15.5227 114.273 16.2045C114.507 16.8864 114.844 17.419 115.285 17.8026C115.732 18.1861 116.279 18.3778 116.925 18.3778ZM132.527 17.7067L132.548 11.4957H133.273L137.875 5.63636H143.777L136.938 14.0312H135.563L132.527 17.7067ZM127.829 22V0.181818H133.039V22H127.829ZM137.992 22L133.71 15.2031L137.14 11.5064L144.012 22H137.992Z" fill="#1877F2"/>
</svg>
